Coordinates
version=1
nRows=14
nColumns=40
inDegrees=yes

Units are S.I. units (second, meters, Newtons, ...)
Angles are in degrees.

endheader
time	pelvis_tilt	pelvis_list	pelvis_rotation	pelvis_tx	pelvis_ty	pelvis_tz	hip_flexion_r	hip_adduction_r	hip_rotation_r	knee_angle_r	knee_angle_r_beta	ankle_angle_r	subtalar_angle_r	mtp_angle_r	hip_flexion_l	hip_adduction_l	hip_rotation_l	knee_angle_l	knee_angle_l_beta	ankle_angle_l	subtalar_angle_l	mtp_angle_l	lumbar_extension	lumbar_bending	lumbar_rotation	arm_flex_r	arm_add_r	arm_rot_r	elbow_flex_r	pro_sup_r	wrist_flex_r	wrist_dev_r	arm_flex_l	arm_add_l	arm_rot_l	elbow_flex_l	pro_sup_l	wrist_flex_l	wrist_dev_l
     39.32750000	     -5.46519717	     -4.02249629	      1.52876266	      0.94483183	      0.92307515	      0.46742860	      1.63703671	     -2.50532982	    -16.45211293	     28.29082461	     28.29082461	     15.16669530	      3.03364548	    -10.33608411	     26.77513508	     -4.05237069	     -1.59685182	     25.45432224	     25.45432224	      7.33854654	    -15.90894594	      7.83086889	     -7.93019902	      4.98528333	      4.95741131	     27.56282418	    -17.21588628	     -7.16580649	     92.90919133	     44.76860994	      0.00000000	      0.00000000	     -5.89315194	     -7.37132145	      8.55926224	     27.63624289	     44.39655561	      0.00000000	      0.00000000
     39.34028571	     -5.43243520	     -3.92757907	      1.46187989	      0.94531316	      0.92401606	      0.46438225	      2.65237519	     -3.35136938	    -16.02533414	     31.07433786	     31.07433786	     13.65889236	      2.16835702	    -12.16493573	     26.08828542	     -3.80566449	     -1.80101719	     25.39180851	     25.39180851	      7.82571278	    -15.82248637	      7.73130233	     -8.03009148	      5.06427567	      4.92002217	     25.52071633	    -17.18155765	     -7.28898135	     90.96858755	     44.83059824	      0.00000000	      0.00000000	     -4.85271394	     -7.63649157	      8.20510499	     28.55147525	     44.47709856	      0.00000000	      0.00000000
     39.35307143	     -5.41084254	     -3.99074477	      1.44988471	      0.94586858	      0.92473731	      0.46158198	      3.54222497	     -3.80213650	    -15.27340577	     33.11002102	     33.11002102	      8.84010834	     -1.22682611	    -22.37812062	     25.42370587	     -3.70185565	     -1.81809667	     25.35037817	     25.35037817	      8.56678741	    -15.64109508	      7.80164606	     -7.94342008	      5.14467510	      4.31507085	     24.42804311	    -16.27016140	     -7.73626213	     87.15880392	     44.99065955	      0.00000000	      0.00000000	     -4.65436980	     -7.90255621	      6.09819291	     31.17541881	     44.86920652	      0.00000000	      0.00000000
     39.36585714	     -5.34367175	     -3.86670783	      1.36419101	      0.94633891	      0.92537280	      0.45865647	      4.97407456	     -4.70230355	    -14.61573262	     36.58377356	     36.58377356	      7.12552990	     -2.44181370	    -23.02104531	     24.66565133	     -3.43497367	     -2.04089515	     25.25370449	     25.25370449	      9.12442114	    -15.49005661	      7.53244975	     -8.02520178	      5.12503340	      4.39139380	     22.25524385	    -16.36651585	     -7.64202268	     85.25059300	     45.04306120	      0.00000000	      0.00000000	     -3.45039328	     -8.16969612	      5.76321069	     31.99354097	     44.94159077	      0.00000000	      0.00000000
     39.37864286	     -5.33455188	     -3.80224652	      1.30406000	      0.94660730	      0.92578681	      0.45583245	      6.66972925	     -5.43561741	    -13.72760178	     40.20261250	     40.20261250	      4.92250943	     -4.29190348	    -23.67719449	     24.01297969	     -3.22139387	     -2.20583091	     25.18154859	     25.18154859	      9.65544770	    -15.32499977	      7.23688140	     -8.04900027	      5.19896619	      4.50958154	     20.19956387	    -16.36348517	     -7.77826355	     82.85953921	     45.11874661	      0.00000000	      0.00000000	     -2.21910306	     -8.46947537	      5.36533059	     33.09807629	     45.02119065	      0.00000000	      0.00000000
     39.39142857	     -5.35018513	     -3.78958285	      1.21279830	      0.94673730	      0.92605054	      0.45335142	      8.57443296	     -5.94180878	    -12.58761361	     43.90851176	     43.90851176	      2.30187915	     -6.81168234	    -24.14385806	     23.40695105	     -3.10165732	     -2.36048349	     25.12532251	     25.12532251	     10.15398841	    -15.11696600	      6.89956063	     -8.00656867	      5.20536761	      4.64178017	     18.30709752	    -16.22516765	     -8.12248247	     79.91789293	     45.21984145	      0.00000000	      0.00000000	     -1.03720336	     -8.76388085	      4.87917942	     34.53409723	     45.11154067	      0.00000000	      0.00000000
     39.40421429	     -5.23559406	     -3.85513018	      1.19895752	      0.94687192	      0.92640274	      0.45087503	     10.36661755	     -6.24116304	    -11.50019290	     47.44054262	     47.44054262	     -0.80297346	     -9.92706347	    -24.93550037	     22.70314423	     -3.07427988	     -2.56010873	     25.11507645	     25.11507645	     10.56275132	    -14.86073079	      6.20927214	     -8.04419326	      5.35350068	      3.64243366	     17.93511146	    -14.96195113	     -8.35765225	     74.46386954	     45.40245101	      0.00000000	      0.00000000	     -1.02792948	     -9.24779868	      2.90298866	     37.91000987	     45.41876708	      0.00000000	      0.00000000
     39.41700000	     -5.18674976	     -3.81131130	      1.12793534	      0.94677927	      0.92655365	      0.44856398	     12.47277935	     -6.63553818	    -10.43479771	     51.25694888	     51.25694888	     -3.16876626	    -12.11430755	    -23.34202637	     22.06215195	     -2.96751048	     -2.86328674	     25.08742776	     25.08742776	     11.06918517	    -14.46938045	      5.70463589	     -8.10448286	      5.38290327	      3.52363915	     16.42034565	    -14.57116430	     -8.60504854	     71.09123428	     45.51107128	      0.00000000	      0.00000000	      0.15951188	     -9.60757954	      2.22911791	     39.42008105	     45.54479868	      0.00000000	      0.00000000
     39.42978571	     -5.14292652	     -3.64156625	      1.04611614	      0.94654272	      0.92667856	      0.44629548	     14.65721859	     -7.14582846	     -9.48509511	     54.95523006	     54.95523006	     -5.50693127	    -14.03800858	    -21.95023737	     21.36404822	     -2.70022082	     -3.13127904	     24.93180677	     24.93180677	     11.55490602	    -14.23127164	      5.43195214	     -8.23517238	      5.28395204	      3.62283800	     14.35464941	    -14.52232970	     -8.45971309	     69.10916884	     45.56176011	      0.00000000	      0.00000000	      1.68314480	     -9.97180709	      1.96353896	     40.46781568	     45.60241941	      0.00000000	      0.00000000
     39.44257143	     -5.06715475	     -3.70952845	      0.97443332	      0.94618650	      0.92692736	      0.44443068	     16.91511757	     -7.15041562	     -8.50389455	     58.62644065	     58.62644065	     -6.32903114	    -15.12315789	    -16.32941629	     20.71582786	     -2.79585200	     -3.59354423	     24.90050968	     24.90050968	     12.03849413	    -13.50236019	      4.66520343	     -8.30347855	      5.40845356	      3.46229845	     13.52410996	    -13.90040318	     -9.06189084	     63.90382206	     45.74344458	      0.00000000	      0.00000000	      2.81424982	    -10.47673506	      1.77376831	     42.59231071	     45.66985346	      0.00000000	      0.00000000
     39.45535714	     -4.99736070	     -3.63525143	      0.89724853	      0.94571349	      0.92721783	      0.44262785	     19.21782686	     -7.30950359	     -7.68548290	     62.08993338	     62.08993338	     -6.62314090	    -15.76794160	    -10.59548000	     19.97618739	     -2.70155029	     -3.97853233	     24.67259033	     24.67259033	     12.41722312	    -12.96472821	      4.09018621	     -8.42456305	      5.36488600	      3.19119993	     12.40612899	    -13.49418774	     -8.89482214	     59.82697750	     45.85015545	      0.00000000	      0.00000000	      3.99498792	    -11.04704339	      1.56807224	     44.36681263	     45.74404805	      0.00000000	      0.00000000
     39.46814286	     -4.92333572	     -3.45770052	      0.84766136	      0.94514494	      0.92763274	      0.44074997	     21.29567053	     -7.62289437	     -7.11229564	     64.85304256	     64.85304256	     -7.95290165	    -16.96873552	     -9.55747572	     19.16005246	     -2.44246757	     -4.26372559	     24.29268855	     24.29268855	     12.78518324	    -12.58550789	      3.92416549	     -8.64770433	      5.27536743	      3.10974271	     10.34947393	    -13.36347771	     -8.65631496	     58.15956634	     45.88571739	      0.00000000	      0.00000000	      5.63025609	    -11.45245300	      1.31958261	     45.32481090	     45.79725649	      0.00000000	      0.00000000
     39.48092857	     -4.86115435	     -3.47641040	      0.75139348	      0.94454317	      0.92822119	      0.43937520	     23.56857832	     -7.48371535	     -6.49956370	     67.67431827	     67.67431827	     -6.64817954	    -16.84524119	     -1.96782915	     18.35854490	     -2.54578450	     -4.95261320	     23.92874442	     23.92874442	     13.15457616	    -11.52966695	      3.12361052	     -8.72622863	      5.29323383	      2.98850255	      9.97299694	    -13.08706926	     -8.62578546	     51.77238919	     46.07368571	      0.00000000	      0.00000000	      6.96370369	    -11.96636608	      1.47425974	     47.29311732	     45.84750350	      0.00000000	      0.00000000
     39.49371429	     -4.75167683	     -3.40373472	      0.63200341	      0.94392588	      0.92902803	      0.43804117	     25.48591020	     -7.50752273	     -6.11799067	     69.65161245	     69.65161245	     -6.88967289	    -17.40161257	     -0.81425293	     17.40173356	     -2.47568808	     -5.43484371	     23.37409660	     23.37409660	     13.50934514	    -10.79667468	      2.87226071	     -8.98423708	      5.25176305	      3.38745217	      8.05621090	    -13.16173123	     -8.32555471	     49.09620409	     46.13474604	      0.00000000	      0.00000000	      8.68120467	    -12.17253399	      1.22298663	     48.64387070	     45.91182183	      0.00000000	      0.00000000
